<svg width="116" height="116" viewBox="0 0 116 116" fill="none" xmlns="http://www.w3.org/2000/svg">
<path opacity="0.293504" d="M0 58C0 90.0336 25.9674 116 58 116C90.0325 116 116 90.0336 116 58C116 25.9674 90.0325 0 58 0C25.9674 0 0 25.9674 0 58Z" fill="#0A2D4D"/>
<path fill-rule="evenodd" clip-rule="evenodd" d="M3 58C3 88.3766 27.6243 113 58 113C88.3757 113 113 88.3766 113 58C113 27.6243 88.3757 3 58 3C27.6243 3 3 27.6243 3 58Z" fill="white"/>
<path fill-rule="evenodd" clip-rule="evenodd" d="M58 13C82.8526 13 103 33.1474 103 58C103 82.8535 82.8526 103 58 103C33.1474 103 13 82.8535 13 58C13 33.1474 33.1474 13 58 13Z" fill="#1A8CFF"/>
<path fill-rule="evenodd" clip-rule="evenodd" d="M58.2215 25C76.2252 25 91 39.7748 91 58.2215C91 76.2261 76.2252 91 58.2215 91C39.7748 91 25 76.2261 25 58.2215C25 39.7748 39.7748 25 58.2215 25Z" fill="#F7F7F7"/>
<path fill-rule="evenodd" clip-rule="evenodd" d="M73 58C73 66.2842 66.2843 73 58 73C49.7157 73 43 66.2842 43 58C43 49.7158 49.7157 43 58 43C66.2843 43 73 49.7158 73 58Z" fill="black" fill-opacity="0.05"/>
<path d="M63.4497 34C64.8582 34 66 35.2958 66 36.8942V59.3036C66 59.8153 65.8209 60.3061 65.502 60.6679L63.9081 62.4768C63.2441 63.2303 63.2441 64.452 63.9081 65.2055L65.502 67.0143C65.8209 67.3762 66 67.8669 66 68.3786V79.1058C66 80.7042 64.8582 82 63.4497 82H52.5503C51.1418 82 50 80.7042 50 79.1058V56.6964C50 56.1847 50.1791 55.6939 50.498 55.3321L52.0919 53.5232C52.7559 52.7697 52.7559 51.548 52.0919 50.7945L50.498 48.9857C50.1791 48.6238 50 48.1331 50 47.6214V36.8942C50 35.2958 51.1418 34 52.5503 34H63.4497Z" fill="#0A2D4D"/>
</svg>
