<svg height="63" viewBox="0 0 64 63" width="64" xmlns="http://www.w3.org/2000/svg" xmlns:xlink="http://www.w3.org/1999/xlink"><defs><linearGradient id="a" x1="50%" x2="50%" y1="0%" y2="100%"><stop offset="0" stop-color="#0073e5"/><stop offset="1" stop-color="#00b9f9"/></linearGradient><radialGradient id="b" cx="50%" cy="50%" r="45.064334%"><stop offset="0" stop-color="#fff" stop-opacity="0"/><stop offset=".880127859" stop-color="#fff" stop-opacity=".85"/><stop offset="1" stop-color="#fff"/></radialGradient><path id="c" d="m32 3.5c15.7400832 0 28.5 12.7598614 28.5 28.5 0 15.7403-12.7599168 28.5-28.5 28.5s-28.5-12.7597-28.5-28.5c0-15.7401386 12.7599168-28.5 28.5-28.5zm0 5.5c-12.7025923 0-23 10.297389-23 22.9999213 0 12.7026897 10.2974077 23.0000787 23 23.0000787 12.7024348 0 23-10.297389 23-23.0000787 0-12.7025323-10.2975652-22.9999213-23-22.9999213z"/><filter id="d" height="119.3%" width="119.3%" x="-9.6%" y="-7.9%"><feMorphology in="SourceAlpha" operator="dilate" radius="0.25" result="shadowSpreadOuter1"/><feOffset dx="0" dy="0" in="shadowSpreadOuter1" result="shadowOffsetOuter1"/><feComposite in="shadowOffsetOuter1" in2="SourceAlpha" operator="out" result="shadowOffsetOuter1"/><feColorMatrix in="shadowOffsetOuter1" result="shadowMatrixOuter1" type="matrix" values="0 0 0 0 0   0 0 0 0 0   0 0 0 0 0  0 0 0 0.4 0"/><feOffset dx="0" dy="1" in="SourceAlpha" result="shadowOffsetOuter2"/><feGaussianBlur in="shadowOffsetOuter2" result="shadowBlurOuter2" stdDeviation="1.5"/><feComposite in="shadowBlurOuter2" in2="SourceAlpha" operator="out" result="shadowBlurOuter2"/><feColorMatrix in="shadowBlurOuter2" result="shadowMatrixOuter2" type="matrix" values="0 0 0 0 0   0 0 0 0 0   0 0 0 0 0  0 0 0 0.25 0"/><feMerge><feMergeNode in="shadowMatrixOuter1"/><feMergeNode in="shadowMatrixOuter2"/></feMerge></filter><linearGradient id="e" x1="50%" x2="50%" y1="0%" y2="100%"><stop offset="0"/><stop offset="1" stop-opacity="0"/></linearGradient><path id="f" d="m31.9999184 24c4.4182454 0 8.0000816 3.5815975 8.0000816 8 0 4.4182393-3.5818362 8-8.0000816 8-4.4182455 0-7.9999184-3.5817607-7.9999184-8 0-4.4184025 3.5816729-8 7.9999184-8z"/><filter id="g" height="143.8%" width="143.8%" x="-21.9%" y="-21.9%"><feGaussianBlur in="SourceAlpha" result="shadowBlurInner1" stdDeviation="1.5"/><feOffset dx="0" dy="3" in="shadowBlurInner1" result="shadowOffsetInner1"/><feComposite in="shadowOffsetInner1" in2="SourceAlpha" k2="-1" k3="1" operator="arithmetic" result="shadowInnerInner1"/><feColorMatrix in="shadowInnerInner1" result="shadowMatrixInner1" type="matrix" values="0 0 0 0 0   0 0 0 0 0   0 0 0 0 0  0 0 0 0.07 0"/><feMorphology in="SourceAlpha" operator="erode" radius="0.5" result="shadowSpreadInner2"/><feOffset dx="0" dy="0" in="shadowSpreadInner2" result="shadowOffsetInner2"/><feComposite in="shadowOffsetInner2" in2="SourceAlpha" k2="-1" k3="1" operator="arithmetic" result="shadowInnerInner2"/><feColorMatrix in="shadowInnerInner2" result="shadowMatrixInner2" type="matrix" values="0 0 0 0 0   0 0 0 0 0   0 0 0 0 0  0 0 0 0.15 0"/><feMerge><feMergeNode in="shadowMatrixInner1"/><feMergeNode in="shadowMatrixInner2"/></feMerge></filter><path id="h" d="m28 26.6483832v-6.1483831c0-.8284272.6715729-1.5 1.5-1.5h5c.8284271 0 1.5.6715728 1.5 1.5v12.4878455c0 .1951049-.0760294.3825305-.211952.5224982l-1.1040281 1.1368845c-.2826027.2910131-.2826027.7539833 0 1.0449964l1.1040281 1.1368844c.1359226.1399677.211952.3273934.211952.5224982v6.1483928c0 .8284271-.6715729 1.5-1.5 1.5h-5c-.8284271 0-1.5-.6715729-1.5-1.5v-12.4878556c0-.1951047.0760293-.3825303.2119518-.522498l1.1040273-1.1368847c.2826024-.291013.2826024-.7539829 0-1.0449959l-1.1040273-1.1368847c-.1359225-.1399677-.2119518-.3273933-.2119518-.522498z"/><filter id="i" height="105.8%" width="118.8%" x="-9.4%" y="-2.9%"><feMorphology in="SourceAlpha" operator="dilate" radius="0.25" result="shadowSpreadOuter1"/><feOffset dx="0" dy="0" in="shadowSpreadOuter1" result="shadowOffsetOuter1"/><feColorMatrix in="shadowOffsetOuter1" type="matrix" values="0 0 0 0 1   0 0 0 0 1   0 0 0 0 1  0 0 0 1 0"/></filter><filter id="j" height="138.5%" width="225%" x="-62.5%" y="-19.2%"><feMorphology in="SourceAlpha" operator="erode" radius="1" result="shadowSpreadInner1"/><feGaussianBlur in="shadowSpreadInner1" result="shadowBlurInner1" stdDeviation="3"/><feOffset dx="0" dy="2" in="shadowBlurInner1" result="shadowOffsetInner1"/><feComposite in="shadowOffsetInner1" in2="SourceAlpha" k2="-1" k3="1" operator="arithmetic" result="shadowInnerInner1"/><feColorMatrix in="shadowInnerInner1" result="shadowMatrixInner1" type="matrix" values="0 0 0 0 0   0 0 0 0 0   0 0 0 0 0  0 0 0 0.6 0"/><feOffset dx="0" dy="0" in="SourceAlpha" result="shadowOffsetInner2"/><feComposite in="shadowOffsetInner2" in2="SourceAlpha" k2="-1" k3="1" operator="arithmetic" result="shadowInnerInner2"/><feColorMatrix in="shadowInnerInner2" result="shadowMatrixInner2" type="matrix" values="0 0 0 0 0   0 0 0 0 0   0 0 0 0 0  0 0 0 0.6 0"/><feMerge><feMergeNode in="shadowMatrixInner1"/><feMergeNode in="shadowMatrixInner2"/></feMerge></filter></defs><g fill="none" fill-rule="evenodd" transform="translate(0 -1)"><path d="m58.5 32.2499171c0 14.4975373-11.7525654 26.2500829-26.25 26.2500829s-26.25-11.7525456-26.25-26.2500829c0-14.4975374 11.7525654-26.2499171 26.25-26.2499171s26.25 11.7523797 26.25 26.2499171z" fill="url(#a)"/><path d="m32 3.5c15.7400832 0 28.5 12.7598614 28.5 28.5 0 15.7403-12.7599168 28.5-28.5 28.5s-28.5-12.7597-28.5-28.5c0-15.7401386 12.7599168-28.5 28.5-28.5zm0 5.5c-12.7025923 0-23 10.297389-23 22.9999213 0 12.7026897 10.2974077 23.0000787 23 23.0000787 12.7024348 0 23-10.297389 23-23.0000787 0-12.7025323-10.2975652-22.9999213-23-22.9999213z" fill="url(#b)"/><use fill="#000" filter="url(#d)" xlink:href="#c"/><use fill="none" xlink:href="#c"/><path d="m59.3375729 23.9171719c.7564509 2.5624543 1.1624271 5.2752308 1.1624271 8.0828281 0 15.7401154-12.7598846 28.5-28.5 28.5s-28.5-12.7598846-28.5-28.5c0-2.8075973.40597619-5.5203738 1.16242714-8.0828281-.43372402 1.958834-.66242714 3.9941228-.66242714 6.0828281 0 15.463973 12.536027 28 28 28s28-12.536027 28-28c0-2.0103165-.2118589-3.9711507-.6144676-5.8613937z" fill="#000" fill-opacity=".03"/><path d="m32 6.5c13.8071187 0 25 11.1928813 25 25 0 6.6073428-2.5632411 12.6160086-6.7495888 17.0858629 3.5850349-4.1932033 5.7495888-9.6367538 5.7495888-15.5858629 0-13.254834-10.745166-24-24-24s-24 10.745166-24 24c0 5.9491091 2.1645539 11.3926596 5.7490622 15.5860518-4.1858211-4.4700432-6.7490622-10.478709-6.7490622-17.0860518 0-13.8071187 11.1928813-25 25-25z" fill="#000" fill-opacity=".07"/><path d="m32.0000799 14.5c9.6650146 0 17.4999201 7.8349579 17.4999201 17.5s-7.8349055 17.5-17.4999201 17.5c-9.6650147 0-17.5000799-7.8349579-17.5000799-17.5s7.8350652-17.5 17.5000799-17.5z" fill="#fff"/><path d="m32.0000799 14.25c4.9015415 0 9.3390197 1.9867203 12.5511135 5.1988288 3.2120962 3.2121109 5.1988066 7.6496122 5.1988066 12.5511712s-1.9867104 9.3390603-5.1988066 12.5511712c-3.2120938 3.2121085-7.649572 5.1988288-12.5511135 5.1988288-4.9015518 0-9.3390788-1.9867288-12.5512143-5.1988497-3.2121241-3.2121094-5.1988656-7.6496022-5.1988656-12.5511503s1.9867415-9.3390409 5.1988656-12.5511503c3.2121355-3.2121209 7.6496625-5.1988497 12.5512143-5.1988497z" fill="url(#e)" fill-opacity=".07" stroke="#000" stroke-opacity=".25" stroke-width=".5"/><use fill="#000" fill-opacity=".03" fill-rule="evenodd" xlink:href="#f"/><use fill="#000" filter="url(#g)" xlink:href="#f"/><path d="m31.9999184 23.75c2.2781826 0 4.3407235.9234016 5.8337083 2.4163711 1.4929517 1.4929365 2.4163733 3.5554157 2.4163733 5.8336289 0 2.27815-.9234372 4.3406468-2.4164134 5.8336078-1.4929818 1.4929666-3.5555064 2.4163922-5.8336682 2.4163922-2.2781523 0-4.340627-.9234174-5.8335663-2.4163719-1.4929469-1.4929621-2.4163521-3.5554672-2.4163521-5.8336281 0-2.2782242.9233896-4.3407115 2.416312-5.8336492 1.4929422-1.4929574 3.5554333-2.4163508 5.8336064-2.4163508z" stroke="#fff" stroke-opacity=".6" stroke-width=".5"/><use fill="#000" filter="url(#i)" xlink:href="#h"/><use fill="#606b73" fill-rule="evenodd" xlink:href="#h"/><use fill="#000" filter="url(#j)" xlink:href="#h"/></g></svg>