<?xml version="1.0" encoding="UTF-8"?>
<svg width="18px" height="18px" viewBox="0 0 18 18" version="1.1" xmlns="http://www.w3.org/2000/svg" xmlns:xlink="http://www.w3.org/1999/xlink">
    <!-- Generator: Sketch 46.2 (44496) - http://www.bohemiancoding.com/sketch -->
    <title>button_icon-add copy</title>
    <desc>Created with Sketch.</desc>
    <defs></defs>
    <g id="symbols/atoms" stroke="none" stroke-width="1" fill="none" fill-rule="evenodd" fill-opacity="0.5">
        <g id="z/button-icon/x" fill="#000000">
            <path d="M10,8 L10,3.00684547 C10,2.44994876 9.55228475,2 9,2 C8.44386482,2 8,2.45078007 8,3.00684547 L8,8 L3.00684547,8 C2.44994876,8 2,8.44771525 2,9 C2,9.55613518 2.45078007,10 3.00684547,10 L8,10 L8,14.9931545 C8,15.5500512 8.44771525,16 9,16 C9.55613518,16 10,15.5492199 10,14.9931545 L10,10 L14.9931545,10 C15.5500512,10 16,9.55228475 16,9 C16,8.44386482 15.5492199,8 14.9931545,8 L10,8 Z" id="Combined-Shape" transform="translate(9.000000, 9.000000) rotate(45.000000) translate(-9.000000, -9.000000) "></path>
        </g>
    </g>
</svg>