<?xml version="1.0" encoding="UTF-8"?>
<svg width="12px" height="12px" viewBox="0 0 12 12" version="1.1" xmlns="http://www.w3.org/2000/svg" xmlns:xlink="http://www.w3.org/1999/xlink">
    <title>icons_color_12_favorites</title>
    <g id="↳-01-Login" stroke="none" stroke-width="1" fill="none" fill-rule="evenodd">
        <g id="Favorite-Badge---Small-Mask" transform="translate(-244.000000, -84.000000)" fill="#FFAA00">
            <g id="icon-2" transform="translate(244.000000, 84.000000)">
                <path d="M11.7831016,5.1634786 L9.80741141,7.44276267 L10.0488759,10.4568599 C10.0879858,10.9450521 9.72393273,11.3725148 9.23574061,11.4116247 C9.09628469,11.4227968 8.95616411,11.4008148 8.82682872,11.3474751 L5.99952618,10.1814561 L3.17306307,11.3474441 C2.72031759,11.5342131 2.20188865,11.3185966 2.01511962,10.8658511 C1.96178538,10.736564 1.9397867,10.5964952 1.95092003,10.457083 L2.19164095,7.44276267 L0.216599327,5.16335179 C-0.104115437,4.79321238 -0.064048851,4.23316443 0.306090551,3.91244966 C0.413638688,3.81926241 0.542033779,3.75332621 0.680431047,3.72021031 L3.64607424,3.01058687 L5.24541719,0.420938357 C5.5027636,0.00424427012 6.04918138,-0.124932545 6.46587547,0.132413865 C6.58322462,0.204887611 6.68205093,0.303735054 6.75449958,0.421099693 L8.35297811,3.01058687 L11.3193302,3.72019778 C11.7956471,3.83414233 12.0894079,4.31264377 11.9754633,4.78896066 C11.9423382,4.92743221 11.8763581,5.05589195 11.7831016,5.1634786 Z" id="icon"></path>
            </g>
        </g>
    </g>
</svg>