<?xml version="1.0" encoding="UTF-8"?>
<svg width="32px" height="32px" viewBox="0 0 32 32" version="1.1" xmlns="http://www.w3.org/2000/svg" xmlns:xlink="http://www.w3.org/1999/xlink">
    <title>favorite-mask-32</title>
    <g id="↳-01-Login" stroke="none" stroke-width="1" fill="none" fill-rule="evenodd">
        <g id="Favorite-Badge---Small-Mask" transform="translate(-144.000000, -64.000000)" fill="#000000">
            <path d="M176,64 L176.000882,85.8356434 C175.930187,85.8128778 175.858081,85.7926476 175.784642,85.7750794 L173.62,85.257 L172.456363,83.3705472 C172.220518,82.9884847 171.898804,82.6667021 171.516792,82.430775 C170.160309,81.5930235 168.38153,82.0135387 167.543778,83.370022 L166.378,85.257 L164.215007,85.775119 C163.764476,85.8829227 163.346505,86.0975678 162.996399,86.4009245 L162.856971,86.5298593 C161.782912,87.5898248 161.702798,89.3163089 162.705074,90.4730433 L164.131,92.118 L163.957267,94.2978717 C163.921024,94.7517065 163.992638,95.2076788 164.166259,95.6285532 L164.238192,95.7891095 C164.273433,95.8618286 164.311397,95.932459 164.351906,96.0009279 L144,96 L144,64 L176,64 Z" id="favorite-mask-32"></path>
        </g>
    </g>
</svg>