<?xml version="1.0" encoding="UTF-8"?>
<svg width="18px" height="18px" viewBox="0 0 18 18" version="1.1" xmlns="http://www.w3.org/2000/svg" xmlns:xlink="http://www.w3.org/1999/xlink">
    <!-- Generator: Sketch 46.2 (44496) - http://www.bohemiancoding.com/sketch -->
    <title>button_icon-settings</title>
    <desc>Created with Sketch.</desc>
    <defs>
        <path d="M17,9.61063673 L17,8.38936327 C17,7.99267479 16.6782107,7.67088553 16.2808287,7.67088553 L16.083178,7.67088553 C15.6226865,7.67088553 15.2211434,7.37336916 15.0720385,6.93784405 C14.9825755,6.67500325 14.8757748,6.41979108 14.7537168,6.17359456 C14.5477439,5.75818127 14.6191756,5.26093364 14.9472064,4.93290278 L15.0886828,4.79142647 C15.3688613,4.51055438 15.3688613,4.05561094 15.0886828,3.77473885 L14.2252612,2.91201075 C13.9443891,2.63113866 13.4894456,2.63113866 13.2085735,2.91201075 L13.0566946,3.06319622 C12.7307442,3.38984006 12.2355771,3.46265875 11.8208574,3.25945993 C11.5774349,3.14017598 11.3256903,3.03545577 11.066317,2.94737983 C10.6287114,2.7989684 10.3291145,2.39673183 10.3291145,1.93485328 L10.3291145,1.71917125 C10.3291145,1.32178926 10.0073252,1 9.61063673,1 L8.38936327,1 C7.99267479,1 7.67088553,1.32178926 7.67088553,1.71917125 L7.67088553,1.95635213 C7.67088553,2.41545663 7.37475619,2.81630619 6.94061809,2.96679814 C6.68748645,3.05418057 6.44128993,3.15751376 6.20341554,3.27541069 C5.78730874,3.48138356 5.29006112,3.40995189 4.96203025,3.08192103 L4.79142647,2.91201075 C4.51055438,2.63113866 4.05561094,2.63113866 3.77473885,2.91201075 L2.91201075,3.77473885 C2.63113866,4.05561094 2.63113866,4.51055438 2.91201075,4.79142647 L3.0923237,4.97243292 C3.41896754,5.29907676 3.49109271,5.79424386 3.28789389,6.20896363 C3.17346452,6.44406398 3.07221187,6.68679294 2.98621646,6.93645702 C2.83711153,7.37267565 2.43556846,7.67088553 1.97438343,7.67088553 L1.71917125,7.67088553 C1.32248277,7.67088553 1,7.99267479 1,8.38936327 L1,9.61063673 C1,10.0073252 1.32248277,10.3291145 1.71917125,10.3291145 L1.97438343,10.3291145 C2.43556846,10.3291145 2.83711153,10.6273243 2.98621646,11.063543 C3.07221187,11.3132071 3.17346452,11.555936 3.28789389,11.7910364 C3.49109271,12.2057561 3.41896754,12.7009232 3.0923237,13.0275671 L2.91201075,13.2085735 C2.63113866,13.4894456 2.63113866,13.9443891 2.91201075,14.2252612 L3.77473885,15.0886828 C4.05561094,15.3688613 4.51055438,15.3688613 4.79142647,15.0886828 L4.96203025,14.918079 C5.29006112,14.5900481 5.78730874,14.5186164 6.20341554,14.7245893 C6.44128993,14.8424862 6.68748645,14.9458194 6.94061809,15.0332019 C7.37475619,15.1836938 7.67088553,15.5845434 7.67088553,16.0436479 L7.67088553,16.2808287 C7.67088553,16.6782107 7.99267479,17 8.38936327,17 L9.61063673,17 C10.0073252,17 10.3291145,16.6782107 10.3291145,16.2808287 L10.3291145,16.0651467 C10.3291145,15.6032682 10.6287114,15.2010316 11.066317,15.0526202 C11.3256903,14.9645442 11.5774349,14.859824 11.8208574,14.7405401 C12.2355771,14.5373413 12.7307442,14.6101599 13.0566946,14.9368038 L13.2085735,15.0886828 C13.4894456,15.3688613 13.9443891,15.3688613 14.2252612,15.0886828 L15.0886828,14.2252612 C15.3688613,13.9443891 15.3688613,13.4894456 15.0886828,13.2085735 L14.9472064,13.0670972 C14.6191756,12.7390664 14.5477439,12.2418187 14.7537168,11.8264054 C14.8757748,11.5802089 14.9825755,11.3249967 15.0720385,11.062156 C15.2211434,10.6266308 15.6226865,10.3291145 16.083178,10.3291145 L16.2808287,10.3291145 C16.6782107,10.3291145 17,10.0073252 17,9.61063673 L17,9.61063673 Z M5.10161066,8.08468632 C5.4278541,6.61387424 6.6146821,5.42769215 8.08479144,5.10144173 C11.0028578,4.45498257 13.5450058,6.99718492 12.8985604,9.91531368 C12.572317,11.3854545 11.3861603,12.5723078 9.91537965,12.8985583 C6.9973133,13.5450174 4.45449403,11.0028151 5.10161066,8.08468632 Z" id="path-1"></path>
    </defs>
    <g id="symbols/atoms" stroke="none" stroke-width="1" fill="none" fill-rule="evenodd">
        <g id="z/button-icon/settings">
            <mask id="mask-2" fill="white">
                <use xlink:href="#path-1"></use>
            </mask>
            <use id="settings" fill="#000000" xlink:href="#path-1"></use>
            <g id="color/dark-gray" mask="url(#mask-2)" fill="#666666">
                <rect id="color" x="0" y="0" width="18" height="18"></rect>
            </g>
        </g>
    </g>
</svg>