<svg height="32" viewBox="0 0 32 32" width="32" xmlns="http://www.w3.org/2000/svg"><g fill="none" fill-rule="evenodd"><path d="m16 .5c8.5611424 0 15.5 6.93885763 15.5 15.5 0 8.5611424-6.9388576 15.5-15.5 15.5-8.56114237 0-15.5-6.9388576-15.5-15.5 0-8.56114237 6.93885763-15.5 15.5-15.5z" fill="#fff" stroke="#000" stroke-opacity=".6"/><path d="m16 4c6.628 0 12 5.372 12 12s-5.372 12-12 12-12-5.372-12-12 5.372-12 12-12zm0 3.25c-4.8329167 0-8.75 3.9170833-8.75 8.75s3.9170833 8.75 8.75 8.75 8.75-3.9170833 8.75-8.75-3.9170833-8.75-8.75-8.75z" fill="#1a8cff"/><path d="m14 13.4558703v-2.9558702c0-.2761424.2238576-.5.5-.5l3-.00000011c.2761424 0 .5.22385761.5.50000001v.0000001l-.0000008 5.881776c0 .1370055-.0562191.2680092-.1555207.3624003l-.3749137.3563738c-.2001482.1902507-.2081718.5067315-.0179211.7068797.0058213.0061241.0117969.0120997.0179211.017921l.3749137.3563739c.0993016.094391.1555207.2253948.1555207.3624002l.0000008 2.9558749c.0000001.2761424-.2238575.5000001-.4999999.5000001h-.0000001l-3-.0000001c-.2761424 0-.5-.2238576-.5-.5v-5.8817806c0-.1370055.056219-.2680093.1555207-.3624004l.3749137-.3563738c.2001482-.1902506.2081717-.5067314.017921-.7068796-.0058213-.0061242-.0117969-.0120998-.017921-.0179211l-.3749137-.3563738c-.0993017-.0943911-.1555207-.2253949-.1555207-.3624003z" fill="#333"/></g></svg>