<svg height="16" viewBox="0 0 16 16" width="16" xmlns="http://www.w3.org/2000/svg"><g fill="none" fill-rule="evenodd"><circle cx="8" cy="8" fill="#fff" r="8"/><path d="m8 14.5c-3.58985087 0-6.5-2.9101491-6.5-6.5 0-3.58985087 2.91014913-6.5 6.5-6.5 3.5898509 0 6.5 2.91014913 6.5 6.5 0 3.5898509-2.9101491 6.5-6.5 6.5zm0-2c2.4852814 0 4.5-2.0147186 4.5-4.5 0-2.48528137-2.0147186-4.5-4.5-4.5-2.48528137 0-4.5 2.01471863-4.5 4.5 0 2.4852814 2.01471863 4.5 4.5 4.5z" fill="#000" fill-opacity=".6"/><path d="m7 5h2v6h-2z" fill="#333"/></g></svg>