<svg height="24" viewBox="0 0 24 24" width="24" xmlns="http://www.w3.org/2000/svg"><g fill="none" fill-rule="evenodd"><path d="m12 0c6.628 0 12 5.372 12 12s-5.372 12-12 12-12-5.372-12-12 5.372-12 12-12z" fill="#fff"/><path d="m21.3804834 13.5112695c-.5418463-.7833261-1.3949839-1.3348859-2.3805712-1.4758376.0000585-.0118038.0000878-.0236144.0000878-.0354319 0-3.86633333-3.1336667-7-7-7-3.86633333 0-7 3.13366667-7 7 0 3.8663333 3.13366667 7 7 7 1.4368235 0 2.7724623-.4327739 3.8836898-1.175095.6254382.7033224 1.5301869 1.1527498 2.5402489 1.1742849-1.6911036 1.5529135-3.9467097 2.5008101-6.4239387 2.5008101-5.24716667 0-9.5-4.2528333-9.5-9.5 0-5.24716667 4.25283333-9.5 9.5-9.5 5.2471667 0 9.5 4.25283333 9.5 9.5 0 .5143332-.0408618 1.0191126-.1195166 1.5112695z" fill="#000" fill-opacity=".6" opacity=".8"/><g fill="#333"><path d="m10.5 7h3v10h-3z" opacity=".8"/><path d="m22 16.5630087c.8626136.2220214 1.5 1.0050716 1.5 1.9369913v3c0 1.1045695-.8954305 2-2 2h-6c-1.1045695 0-2-.8954305-2-2v-3c0-.9319197.6373864-1.7149699 1.5-1.9369913v-1.0630087c0-1.9329966 1.5670034-3.5 3.5-3.5s3.5 1.5670034 3.5 3.5zm-4.5-.0630087h2v-1c0-.5522847-.4477153-1-1-1s-1 .4477153-1 1z" stroke="#fff"/></g></g></svg>