<svg height="16" viewBox="0 0 16 16" width="16" xmlns="http://www.w3.org/2000/svg"><g fill="none" fill-rule="evenodd"><path d="m8 16v-1c-3.86633333 0-7-3.1336667-7-7 0-3.86633333 3.13366667-7 7-7 3.7070484 0 6.7405554 2.88078424 6.9842119 6.52604381.3827556.21908932.7258319.49961349 1.0157881.82813179v4.6458244c0 1.6568542-1.3431458 3-3 3z" fill="#f7f7f7"/><path d="m8 16c-4.418 0-8-3.582-8-8s3.582-8 8-8 8 3.582 8 8c0 .11588441-.0024645.23119363-.0073439.34587812-.2883991-.32494581-.6289151-.6025918-1.0084442-.81983431-.2436565-3.64525957-3.2771635-6.52604381-6.9842119-6.52604381-3.86633333 0-7 3.13366667-7 7 0 3.8663333 3.13366667 7 7 7z" fill="#000" fill-opacity=".6" opacity=".8"/><path d="m8 14c-3.314 0-6-2.686-6-6s2.686-6 6-6c3.0114896 0 5.5043972 2.21801114 5.934422 5.10973246-.2997734-.0717413-.612661-.10973246-.934422-.10973246-.3780004 0-.7437545.05243247-1.0903862.15042124-.3894803-1.80115159-1.9918141-3.15042124-3.9096138-3.15042124-2.20933333 0-4 1.79066667-4 4 0 2.2093333 1.79066667 4 4 4z" fill="#1a8cff" opacity=".8"/><g fill="#333"><path d="m7 5h2v6h-2z" opacity=".8"/><path d="m15 12c.5522847 0 1 .4477153 1 1v2c0 .5522847-.4477153 1-1 1h-4c-.5522847 0-1-.4477153-1-1v-2c0-.5522847.4477153-1 1-1v-1c0-1.1045695.8954305-2 2-2s2 .8954305 2 2zm-3 0h2v-1c0-.5522847-.4477153-1-1-1s-1 .4477153-1 1z"/></g></g></svg>