<svg height="12" viewBox="0 0 12 12" width="12" xmlns="http://www.w3.org/2000/svg"><g fill="none" fill-rule="evenodd"><path d="m6 .5c3.03780904 0 5.5 2.46219096 5.5 5.5s-2.46219096 5.5-5.5 5.5-5.5-2.46219096-5.5-5.5 2.46219096-5.5 5.5-5.5z" fill="#fff" stroke="#000" stroke-opacity=".4"/><path d="m6 1.75c2.34741667 0 4.25 1.90258333 4.25 4.25s-1.90258333 4.25-4.25 4.25-4.25-1.90258333-4.25-4.25 1.90258333-4.25 4.25-4.25zm0 1.25c-1.657 0-3 1.343-3 3s1.343 3 3 3 3-1.343 3-3-1.343-3-3-3z" fill="#000" fill-opacity=".6"/><path d="m5.5 4h1v4h-1z" fill="#333"/></g></svg>