<svg height="32" viewBox="0 0 32 32" width="32" xmlns="http://www.w3.org/2000/svg"><g fill="none" fill-rule="evenodd"><path d="m16 31c-8.285 0-15-6.715-15-15s6.715-15 15-15c8.2025204 0 14.8661449 6.58196597 14.9980085 14.7530332.360907.2891256.6962177.6088785 1.0019915.955318v11.2916488c0 2.209139-1.790861 4-4 4h-12z" fill="#f7f7f7"/><path d="m30.9980085 15.7530332c-.1318636-8.17106723-6.7954881-14.7530332-14.9980085-14.7530332-8.285 0-15 6.715-15 15s6.715 15 15 15v1c-8.836 0-16-7.164-16-16s7.164-16 16-16 16 7.164 16 16c0 .2317688-.0049289.4623873-.0146877.6917562-.3018138-.3400604-.6321666-.6542196-.9873038-.938723z" fill="#000" fill-opacity=".4" opacity=".8"/><path d="m24.550009 14.1310748c-.8559294-3.934776-4.3585396-6.8810748-8.550009-6.8810748-4.8329167 0-8.75 3.9170833-8.75 8.75s3.9170833 8.75 8.75 8.75v3.25c-6.628 0-12-5.372-12-12s5.372-12 12-12c6.0229791 0 11.0087944 4.43602229 11.868844 10.2194649-.5995467-.1434826-1.225322-.2194649-1.868844-.2194649-.4951236 0-.9797417.0449793-1.449991.1310748z" fill="#000" fill-opacity=".6" opacity=".8"/><g fill="#333"><path d="m14 13.4558703v-2.9558702c0-.2761424.2238576-.5.5-.5l3-.00000011c.2761424 0 .5.22385761.5.50000001v.0000001l-.0000008 5.881776c0 .1370055-.0562191.2680092-.1555207.3624003l-.3749137.3563738c-.2001482.1902507-.2081718.5067315-.0179211.7068797.0058213.0061241.0117969.0120997.0179211.017921l.3749137.3563739c.0993016.094391.1555207.2253948.1555207.3624002l.0000008 2.9558749c.0000001.2761424-.2238575.5000001-.4999999.5000001h-.0000001l-3-.0000001c-.2761424 0-.5-.2238576-.5-.5v-5.8817806c0-.1370055.056219-.2680093.1555207-.3624004l.3749137-.3563738c.2001482-.1902506.2081717-.5067314.017921-.7068796-.0058213-.0061242-.0117969-.0120998-.017921-.0179211l-.3749137-.3563738c-.0993017-.0943911-.1555207-.2253949-.1555207-.3624003z" opacity=".8"/><path d="m30 24h1c.5522847 0 1 .4477153 1 1v6c0 .5522847-.4477153 1-1 1h-10c-.5522847 0-1-.4477153-1-1v-6c0-.5522847.4477153-1 1-1h1v-2c0-2.209139 1.790861-4 4-4s4 1.790861 4 4zm-6 0h4v-2c0-1.1045695-.8954305-2-2-2s-2 .8954305-2 2z"/></g></g></svg>