<svg height="12" viewBox="0 0 12 12" width="12" xmlns="http://www.w3.org/2000/svg"><g fill="none" fill-rule="evenodd"><path d="m11.7599922 7.68577904c.1518442.2344933.2400078.51406127.2400078.81422096v2c0 .8284271-.6715729 1.5-1.5 1.5h-4c-.0562217 0-.11172097-.0030931-.16633692-.0091184-.11045129.0060525-.22169877.0091184-.33366308.0091184-3.314 0-6-2.686-6-6s2.686-6 6-6 6 2.686 6 6c0 .58529402-.0837817 1.15099947-.2400078 1.68577904z" fill="#fff"/><path d="m10.7491107 5.90713997c-.3044217-.62533652-.86196019-1.10474831-1.53932753-1.30494725-.53953199-1.23736449-1.77355704-2.10219272-3.20978317-2.10219272-1.93316667 0-3.5 1.56683333-3.5 3.5 0 1.58567235 1.05417111 2.92487431 2.5 3.35509254v1.14490746c0 .049283.00237672.0980108.0070218.1460752-2.14682029-.4564969-3.7570218-2.36304953-3.7570218-4.6460752 0-2.62358333 2.12641667-4.75 4.75-4.75 2.59255957 0 4.6996409 2.07642443 4.7491107 4.65713997z" fill="#000" fill-opacity=".6" opacity=".8"/><g fill="#333"><path d="m6.75 5.2146418c-.46284056.45373083-.75 1.08600968-.75 1.7853582v.08535285c-.30902306.10922398-.57156929.31683634-.75.58519837v-4.17055122h1.5z" opacity=".8"/><path d="m7 8v-1c0-.82842712.67157288-1.5 1.5-1.5s1.5.67157288 1.5 1.5v1h.5c.2761424 0 .5.22385763.5.5v2c0 .2761424-.2238576.5-.5.5h-4c-.27614237 0-.5-.2238576-.5-.5v-2c0-.27614237.22385763-.5.5-.5zm1 0h1v-1c0-.27614237-.22385763-.5-.5-.5s-.5.22385763-.5.5z"/></g></g></svg>