<svg width="23" height="25" viewBox="0 0 23 25" fill="none" xmlns="http://www.w3.org/2000/svg">
<path d="M7.5 3.5C7.5 4.32978 6.82733 5.00244 5.99756 5.00244H3.5C2.11929 5.00244 1 6.12173 1 7.50244V11.0491C1 11.3092 1.23989 11.5024 1.5 11.5024H2.5C3.88071 11.5024 5 12.6217 5 14.0024C5 15.3832 3.88071 16.5024 2.5 16.5024H1.5C1.23989 16.5024 1 16.6957 1 16.9558V20.5024C1 21.8832 2.11929 23.0024 3.5 23.0024H7.04468C7.30598 23.0024 7.5 22.7613 7.5 22.5V21.5C7.5 20.1193 8.61929 19 10 19C11.3807 19 12.5 20.1193 12.5 21.5V22.5C12.5 22.7613 12.694 23.0024 12.9553 23.0024H16.5C17.8807 23.0024 19 21.8832 19 20.5024V17.0026C19 16.7265 19.2239 16.5026 19.5 16.5026C20.8807 16.5026 22 15.3833 22 14.0026C22 12.6219 20.8807 11.5026 19.5 11.5026C19.2239 11.5026 19 11.2788 19 11.0026V7.50244C19 6.12173 17.8807 5.00244 16.5 5.00244H14.0024C13.1727 5.00244 12.5 4.32978 12.5 3.5C12.5 2.11929 11.3807 1 10 1C8.61929 1 7.5 2.11929 7.5 3.5Z" fill="white" />
</svg>
