<svg width="32" height="32" viewBox="0 0 32 32" fill="none" xmlns="http://www.w3.org/2000/svg">
<path d="M0 8C0 3.58172 3.58172 0 8 0H24C28.4183 0 32 3.58172 32 8V24C32 28.4183 28.4183 32 24 32H8C3.58172 32 0 28.4183 0 24V8Z" fill="#C2EAFF"/>
<path fill-rule="evenodd" clip-rule="evenodd" d="M16 5C19.2276 5 22.1305 6.38987 24.1426 8.6038C24.2661 8.73993 24.3868 8.87938 24.5037 9.02171C24.6115 9.15309 24.7169 9.28717 24.8185 9.42372C24.9491 9.59848 25.0747 9.77738 25.1949 9.96C26.3361 11.6936 27 13.7693 27 16C27 22.0751 22.0751 27 16 27C9.92488 27 5 22.0751 5 16C5 13.6537 5.7346 11.4786 6.98648 9.69289L6.98896 9.68958C7.30627 9.23697 7.65704 8.80955 8.03756 8.41064L8.10449 8.34061C10.1038 6.28018 12.9025 5 16 5ZM15.1538 21.9173V25.0751C14.5758 24.7683 13.9218 24.1275 13.3016 22.9758C13.1665 22.7248 13.038 22.4573 12.917 22.1743C13.6504 22.0493 14.3965 21.9629 15.1538 21.9173ZM16.8462 25.0751V21.8832C17.3192 21.8927 17.7882 21.9179 18.2526 21.9586C18.548 21.9844 18.8417 22.0165 19.1334 22.0547C18.9979 22.3821 18.8525 22.6897 18.6984 22.9758C18.0782 24.1275 17.4242 24.7683 16.8462 25.0751ZM16.8462 16.8462V20.1907C17.8068 20.2085 18.7529 20.2868 19.6804 20.4216C19.9659 19.3466 20.1543 18.1402 20.2122 16.8462H16.8462ZM15.1538 16.8462V20.2221C14.204 20.275 13.2702 20.3872 12.3555 20.5547C12.0502 19.4464 11.8481 18.1939 11.7878 16.8462H15.1538ZM16.8462 15.1538H20.2122C20.1535 13.8429 19.9606 12.6218 19.6693 11.536C18.7455 11.6701 17.803 11.7475 16.8462 11.7653V15.1538ZM21.9057 16.8462C21.8491 18.2276 21.6553 19.5377 21.3492 20.7297C21.4566 20.7538 21.5636 20.7786 21.6702 20.8042C21.9499 20.8714 22.2276 20.9437 22.5032 21.0211C22.6858 21.0724 22.8671 21.1259 23.0477 21.1817C23.2357 21.2397 23.4229 21.3 23.6084 21.3628C24.526 20.0634 25.1189 18.5186 25.2697 16.8462H21.9057ZM25.2697 15.1538H21.9057C21.8483 13.7563 21.6508 12.4317 21.3385 11.2288C21.5169 11.1887 21.6946 11.1466 21.8714 11.1024C22.064 11.0545 22.2553 11.0041 22.4457 10.9512C22.8291 10.8444 23.2084 10.7279 23.5832 10.6016C24.5152 11.9083 25.1176 13.4661 25.2697 15.1538ZM15.1538 15.1538H11.7878C11.8486 13.7892 12.0551 12.5218 12.3671 11.4034C13.2781 11.5697 14.2081 11.6812 15.1538 11.7339V15.1538ZM10.0943 15.1538C10.1546 13.6811 10.3711 12.2892 10.7132 11.0357C9.9914 10.8462 9.28324 10.6215 8.59202 10.3639C7.56036 11.7176 6.89186 13.3626 6.73032 15.1538H10.0943ZM6.73032 16.8462C6.89062 18.6223 7.54962 20.2545 8.56641 21.6018C8.97833 21.4477 9.39645 21.3052 9.81952 21.175C9.96454 21.1302 10.1104 21.087 10.2566 21.0453C10.4046 21.0032 10.5529 20.9625 10.702 20.9232C10.3665 19.6802 10.1538 18.303 10.0943 16.8462H6.73032ZM15.1538 6.92492V10.0387C14.4023 9.99326 13.6619 9.90794 12.9343 9.78461C13.0504 9.51688 13.1732 9.263 13.3016 9.02419C13.9218 7.8725 14.5758 7.23169 15.1538 6.92492ZM19.1161 9.9036C18.3711 10.0003 17.6138 10.0575 16.8462 10.0728V6.92492C17.4242 7.23169 18.0782 7.8725 18.6984 9.02419C18.8459 9.29811 18.9855 9.59187 19.1161 9.9036ZM20.8369 22.3501C20.5266 23.1632 20.1589 23.8947 19.7441 24.5239C20.1043 24.3655 20.4526 24.1849 20.7873 23.9837C21.3707 23.6332 21.9127 23.2204 22.4036 22.7548C22.2668 22.7137 22.1297 22.674 21.9917 22.6356L21.7132 22.5602C21.4236 22.4839 21.1315 22.4139 20.8369 22.3501ZM10.5351 22.7271C10.7665 22.6587 10.9995 22.5943 11.2346 22.5337C11.5292 23.2737 11.8725 23.9424 12.2559 24.5239C11.359 24.1294 10.5364 23.5974 9.81415 22.9547C10.0525 22.8746 10.293 22.7986 10.5351 22.7271ZM20.8216 9.60943C21.3447 9.49643 21.8603 9.36339 22.3681 9.21176C21.6033 8.4941 20.7175 7.90432 19.7441 7.47607C20.1519 8.09478 20.5146 8.81244 20.8216 9.60943ZM12.2559 7.47607C11.8795 8.04706 11.5412 8.70234 11.2503 9.4264C11.045 9.37352 10.8409 9.31774 10.638 9.25886C10.3732 9.18222 10.1104 9.10042 9.8501 9.01345C10.5636 8.38503 11.3738 7.86403 12.2559 7.47607Z" fill="#02346E"/>
</svg>
