<svg height="12" viewBox="0 0 12 12" width="12" xmlns="http://www.w3.org/2000/svg"><g fill="none" fill-rule="evenodd"><path d="m6 0c3.314 0 6 2.686 6 6s-2.686 6-6 6-6-2.686-6-6 2.686-6 6-6z" fill="#fff"/><path d="m6 1.25c2.62358333 0 4.75 2.12641667 4.75 4.75s-2.12641667 4.75-4.75 4.75-4.75-2.12641667-4.75-4.75 2.12641667-4.75 4.75-4.75zm0 1.25c-1.93316667 0-3.5 1.56683333-3.5 3.5s1.56683333 3.5 3.5 3.5 3.5-1.56683333 3.5-3.5-1.56683333-3.5-3.5-3.5z" fill="#198cff"/><path d="m5.25 3.5h1.5v5h-1.5z" fill="#333"/></g></svg>