<svg height="24" viewBox="0 0 24 24" width="24" xmlns="http://www.w3.org/2000/svg"><g fill="none" fill-rule="evenodd"><path d="m12 .5c6.351809 0 11.5 5.14819096 11.5 11.5 0 6.351809-5.148191 11.5-11.5 11.5-6.35180904 0-11.5-5.148191-11.5-11.5 0-6.35180904 5.14819096-11.5 11.5-11.5z" fill="#f7f7f7" stroke="#000" stroke-opacity=".4"/><path d="m12 3c4.971 0 9 4.029 9 9s-4.029 9-9 9-9-4.029-9-9 4.029-9 9-9zm0 3c-3.314 0-6 2.686-6 6s2.686 6 6 6 6-2.686 6-6-2.686-6-6-6z" fill="#000" fill-opacity=".6"/><path d="m11 8h2v8h-2z" fill="#333"/></g></svg>