<svg height="24" viewBox="0 0 24 24" width="24" xmlns="http://www.w3.org/2000/svg"><g fill="none" fill-rule="evenodd"><path d="m12 0c6.628 0 12 5.372 12 12s-5.372 12-12 12-12-5.372-12-12 5.372-12 12-12z" fill="#fff"/><path d="m12 2.5c5.2471667 0 9.5 4.25283333 9.5 9.5 0 5.2471667-4.2528333 9.5-9.5 9.5-5.24716667 0-9.5-4.2528333-9.5-9.5 0-5.24716667 4.25283333-9.5 9.5-9.5zm0 2.5c-3.86633333 0-7 3.13366667-7 7 0 3.8663333 3.13366667 7 7 7 3.8663333 0 7-3.1336667 7-7 0-3.86633333-3.1336667-7-7-7z" fill="#198cff"/><path d="m10.5 7h3v10h-3z" fill="#333"/></g></svg>