<svg height="12" viewBox="0 0 12 12" width="12" xmlns="http://www.w3.org/2000/svg"><g fill="none" fill-rule="evenodd"><path d="m11 5.9998169c-.0000989-2.7615825-2.23839437-4.9998169-5-4.9998169-2.76166667 0-5 2.23833333-5 5s2.23833333 5 5 5v1h5c.5522847 0 1-.4477153 1-1v-3c0-.81790892-.3927767-1.54407993-1-2.0001831z" fill="#f7f7f7"/><path d="m11.8758831 7.21989622c-.1613008-.49155422-.470897-.91588243-.8758831-1.22007932-.0000989-2.7615825-2.23839437-4.9998169-5-4.9998169-2.76166667 0-5 2.23833333-5 5s2.23833333 5 5 5v1c-3.3135 0-6-2.6865-6-6s2.6865-6 6-6 6 2.6865 6 6c0 .41798761-.0427504.82599774-.1241169 1.21989622z" fill="#000" fill-opacity=".4" opacity=".8"/><path d="m10.232254 5.60894982c-.2315892-.07083641-.47747065-.10894982-.732254-.10894982-.18274155 0-.36090364.01960697-.53249735.05683196-.21417447-1.4468211-1.46107556-2.55683196-2.96750265-2.55683196-1.657 0-3 1.343-3 3s1.343 3 3 3v1.25c-2.34741667 0-4.25-1.90258333-4.25-4.25s1.90258333-4.25 4.25-4.25c2.21557736 0 4.0348851 1.69487299 4.232254 3.85894982z" fill="#198cff" opacity=".8"/><g fill="#333"><path d="m5.5 4h1v4h-1z" opacity=".8"/><path d="m8 9v-1c0-.82842712.67157288-1.5 1.5-1.5.8284271 0 1.5.67157288 1.5 1.5v1h.5c.2761424 0 .5.22385763.5.5v2c0 .2761424-.2238576.5-.5.5h-4c-.27614237 0-.5-.2238576-.5-.5v-2c0-.27614237.22385763-.5.5-.5zm1 0h1v-1c0-.27614237-.22385763-.5-.5-.5s-.5.22385763-.5.5z"/></g></g></svg>