<svg height="16" viewBox="0 0 16 16" width="16" xmlns="http://www.w3.org/2000/svg"><g fill="none" fill-rule="evenodd"><circle cx="8" cy="8" fill="#fff" r="8"/><path d="m8 14.5c-3.58985087 0-6.5-2.9101491-6.5-6.5 0-3.58985087 2.91014913-6.5 6.5-6.5 3.5898509 0 6.5 2.91014913 6.5 6.5 0 3.5898509-2.9101491 6.5-6.5 6.5zm0-2c2.4852814 0 4.5-2.0147186 4.5-4.5 0-2.48528137-2.0147186-4.5-4.5-4.5-2.48528137 0-4.5 2.01471863-4.5 4.5 0 2.4852814 2.01471863 4.5 4.5 4.5z" fill="#000" fill-opacity=".6" opacity=".8"/><g fill="#333"><path d="m14.5 10.5853529c.5825962.2059182 1 .7615377 1 1.4146471v2c0 .8284271-.6715729 1.5-1.5 1.5h-4c-.82842712 0-1.5-.6715729-1.5-1.5v-2c0-.6531094.41740381-1.2087289 1-1.4146471v-.5853529c0-1.38071187 1.1192881-2.5 2.5-2.5s2.5 1.11928813 2.5 2.5zm-3-.0853529h1v-.5c0-.27614237-.2238576-.5-.5-.5s-.5.22385763-.5.5z" stroke="#fff"/><path d="m7 5h2v6h-2z" opacity=".8"/></g></g></svg>