<svg xmlns="http://www.w3.org/2000/svg" xmlns:xlink="http://www.w3.org/1999/xlink" width="64" height="64" viewBox="0 0 64 64">
  <defs>
    <path id="app_icon-64-a" d="M0,31 C0,13.8791531 13.8791531,0 31,0 C48.1208469,0 62,13.8791531 62,31 C62,48.1213814 48.1208469,62 31,62 C13.8791531,62 0,48.1213814 0,31 Z M7,31 C7,44.2552238 17.7452761,55 31,55 C44.2547239,55 55,44.2552238 55,31 C55,17.7452761 44.2547239,7 31,7 C17.7452761,7 7,17.7452761 7,31 Z"/>
    <path id="app_icon-64-b" d="M31,12.5379487 C41.1958974,12.5379487 49.4615385,20.8035897 49.4615385,30.9994872 C49.4615385,41.1958974 41.1958974,49.4610256 31,49.4610256 C20.8041026,49.4610256 12.5384615,41.1958974 12.5384615,30.9994872 C12.5384615,20.8035897 20.8041026,12.5379487 31,12.5379487 L31,12.5379487 Z"/>
    <polygon id="app_icon-64-d" points="28 27.62 28 20 36 20 36 32.763 34.001 34.571 36 36.38 36 44 28 44 28 31.238 30 29.429"/>
    <filter id="app_icon-64-c" width="106.2%" height="104.2%" x="-3.1%" y="-1%" filterUnits="objectBoundingBox">
      <feOffset dy=".5" in="SourceAlpha" result="shadowOffsetOuter1"/>
      <feComposite in="shadowOffsetOuter1" in2="SourceAlpha" operator="out" result="shadowOffsetOuter1"/>
      <feColorMatrix in="shadowOffsetOuter1" values="0 0 0 0 1   0 0 0 0 1   0 0 0 0 1  0 0 0 0.5 0"/>
    </filter>
  </defs>
  <g fill="none" fill-rule="evenodd">
    <path fill="#1A8CFF" d="M32,7.38410256 C45.5948718,7.38410256 56.6158974,18.4051282 56.6158974,32 C56.6158974,45.5953846 45.5948718,56.6158974 32,56.6158974 C18.4051282,56.6158974 7.38410256,45.5953846 7.38410256,32 C7.38410256,18.4051282 18.4051282,7.38410256 32,7.38410256"/>
    <g transform="translate(1 1)">
      <use fill="#FFF" xlink:href="#app_icon-64-a"/>
      <path stroke="#000" stroke-opacity=".25" d="M-0.5,31 C-0.5,13.6030107 13.6030107,-0.5 31,-0.5 C48.3969893,-0.5 62.5,13.6030107 62.5,31 C62.5,48.3973405 48.3971726,62.5 31,62.5 C13.6028274,62.5 -0.5,48.3973405 -0.5,31 Z M7.5,31 C7.5,43.9789072 18.0212442,54.5 31,54.5 C43.9787558,54.5 54.5,43.9789072 54.5,31 C54.5,18.0214185 43.9785815,7.5 31,7.5 C18.0214185,7.5 7.5,18.0214185 7.5,31 Z"/>
      <g>
        <use fill="#EDEDED" xlink:href="#app_icon-64-b"/>
        <path stroke="#000" stroke-opacity=".25" stroke-width=".5" d="M31,12.2879487 C41.3339686,12.2879487 49.7115385,20.6655186 49.7115385,30.9994872 C49.7115385,41.3337926 41.3341447,49.7110256 31,49.7110256 C20.6658553,49.7110256 12.2884615,41.3337926 12.2884615,30.9994872 C12.2884615,20.6655186 20.6660314,12.2879487 31,12.2879487 Z"/>
      </g>
    </g>
    <use fill="#000" filter="url(#app_icon-64-c)" xlink:href="#app_icon-64-d"/>
    <use fill="#666" xlink:href="#app_icon-64-d"/>
    <path stroke="#000" stroke-opacity=".25" d="M28.5,27.3978047 L30.7448773,29.4287258 L28.5,31.4599676 L28.5,43.5 L35.5,43.5 L35.5,36.602005 L33.2556227,34.5712156 L35.5,32.5407469 L35.5,20.5 L28.5,20.5 L28.5,27.3978047 Z"/>
  </g>
</svg>
