<svg height="32" viewBox="0 0 32 32" width="32" xmlns="http://www.w3.org/2000/svg"><g fill="none" fill-rule="evenodd"><path d="m16 31c-8.28427125 0-15-6.7157288-15-15 0-8.28427125 6.71572875-15 15-15 8.2017916 0 14.8661187 6.58266859 14.998008 14.7530327.3609071.2891257.696218.6088788 1.001992.9553185v11.2916488c0 2.209139-1.790861 4-4 4h-12z" fill="#f7f7f7"/><path d="m30.998008 15.7530327c-.1318893-8.17036411-6.7962164-14.7530327-14.998008-14.7530327-8.28427125 0-15 6.71572875-15 15 0 8.2842712 6.71572875 15 15 15v1c-8.836 0-16-7.164-16-16s7.164-16 16-16 16 7.164 16 16c0 .2317688-.0049289.4623873-.0146877.6917562-.301814-.3400606-.632167-.65422-.9873043-.9387235z" fill="#000" fill-opacity=".6" opacity=".8"/><path d="m16 28c-6.628 0-12-5.372-12-12s5.372-12 12-12c6.0229791 0 11.0087944 4.43602229 11.868844 10.2194649-.5995467-.1434826-1.225322-.2194649-1.868844-.2194649-.4951236 0-.9797417.0449793-1.449991.1310748-.8559294-3.934776-4.3585396-6.8810748-8.550009-6.8810748-4.8329167 0-8.75 3.9170833-8.75 8.75s3.9170833 8.75 8.75 8.75z" fill="#1a8cff" opacity=".8"/><g fill="#333"><path d="m14 13.4558703v-2.9558702c0-.2761424.2238576-.5.5-.5l3-.00000011c.2761424 0 .5.22385761.5.50000001v.0000001l-.0000008 5.881776c0 .1370055-.0562191.2680092-.1555207.3624003l-.3749137.3563738c-.2001482.1902507-.2081718.5067315-.0179211.7068797.0058213.0061241.0117969.0120997.0179211.017921l.3749137.3563739c.0993016.094391.1555207.2253948.1555207.3624002l.0000008 2.9558749c.0000001.2761424-.2238575.5000001-.4999999.5000001h-.0000001l-3-.0000001c-.2761424 0-.5-.2238576-.5-.5v-5.8817806c0-.1370055.056219-.2680093.1555207-.3624004l.3749137-.3563738c.2001482-.1902506.2081717-.5067314.017921-.7068796-.0058213-.0061242-.0117969-.0120998-.017921-.0179211l-.3749137-.3563738c-.0993017-.0943911-.1555207-.2253949-.1555207-.3624003z" opacity=".8"/><path d="m30 24h1c.5522847 0 1 .4477153 1 1v6c0 .5522847-.4477153 1-1 1h-10c-.5522847 0-1-.4477153-1-1v-6c0-.5522847.4477153-1 1-1h1v-2c0-2.209139 1.790861-4 4-4s4 1.790861 4 4zm-6 0h4v-2c0-1.1045695-.8954305-2-2-2s-2 .8954305-2 2z"/></g></g></svg>