<svg height="16" viewBox="0 0 16 16" width="16" xmlns="http://www.w3.org/2000/svg"><g fill="none" fill-rule="evenodd"><path d="m8 .5c4.1424757 0 7.5 3.35752429 7.5 7.5 0 4.1424757-3.3575243 7.5-7.5 7.5-4.14247571 0-7.5-3.3575243-7.5-7.5 0-4.14247571 3.35752429-7.5 7.5-7.5z" fill="#fff" stroke="#000" stroke-opacity=".6"/><path d="m7 5h2v6h-2z" fill="#333"/><path d="m8 2c3.314 0 6 2.686 6 6s-2.686 6-6 6-6-2.686-6-6 2.686-6 6-6zm0 2c-2.20933333 0-4 1.79066667-4 4 0 2.2093333 1.79066667 4 4 4 2.2093333 0 4-1.7906667 4-4 0-2.20933333-1.7906667-4-4-4z" fill="#1a8cff"/></g></svg>