<svg height="24" viewBox="0 0 24 24" width="24" xmlns="http://www.w3.org/2000/svg"><g fill="none" fill-rule="evenodd"><path d="m22 24h-9.5986534c-.1756889-.3037137-.2996626-.6410862-.3598802-1.0000765-6.11713307.0000765-11.0414664-4.9242568-11.0414664-10.9999235 0-6.07566667 4.92433333-11 11-11 5.9489737 0 10.7941299 4.72110508 10.9936105 10.6214573.3689208.2646601.7065851.5701299 1.0063895.9098061v9.4687366c0 1.1045695-.8954305 2-2 2z" fill="#f7f7f7"/><path d="m12.3976178 23.9935354c-.1320115.0042986-.2645619.0064646-.3976178.0064646-6.627 0-12-5.373-12-12s5.373-12 12-12 12 5.373 12 12c0 .1738266-.0036967.3467904-.0110158.5188172-.2970518-.334695-.6309644-.6359363-.9953737-.8973599-.1994806-5.90035222-5.0446368-10.6214573-10.9936105-10.6214573-6.07566667 0-11 4.92433333-11 11 0 6.0756667 4.92433333 11 11 11 .0138281 0 .0276503-.0000255.0414664-.0000765.0597907.3564453.1824367.6915782.3561514.9936119z" fill="#000" fill-opacity=".4" opacity=".8"/><path d="m12 21c-4.971 0-9-4.029-9-9s4.029-9 9-9c4.5172343 0 8.2565958 3.32701672 8.901633 7.6645987-.44966-.107612-.9189915-.1645987-1.401633-.1645987-.5670006 0-1.1156318.0786487-1.6355794.2256319-.5842203-2.70172743-2.9877211-4.7256319-5.8644206-4.7256319-3.314 0-6 2.686-6 6s2.686 6 6 6z" fill="#000" fill-opacity=".6" opacity=".8"/><g fill="#333"><path d="m11 8h2v8h-2z" opacity=".8"/><path d="m22.5 18c.8284271 0 1.5.6715729 1.5 1.5v3c0 .8284271-.6715729 1.5-1.5 1.5h-6c-.8284271 0-1.5-.6715729-1.5-1.5v-3c0-.8284271.6715729-1.5 1.5-1.5v-1.5c0-1.6568542 1.3431458-3 3-3s3 1.3431458 3 3zm-4.5 0h3v-1.5c0-.8284271-.6715729-1.5-1.5-1.5s-1.5.6715729-1.5 1.5z"/></g></g></svg>