<svg height="32" viewBox="0 0 32 32" width="32" xmlns="http://www.w3.org/2000/svg"><g fill="none" fill-rule="evenodd"><circle cx="16" cy="16" fill="#fff" r="16"/><path d="m16 28.5c-6.90355937 0-12.5-5.5964406-12.5-12.5 0-6.90355937 5.59644063-12.5 12.5-12.5 6.9035594 0 12.5 5.59644063 12.5 12.5 0 6.9035594-5.5964406 12.5-12.5 12.5zm0-3.5c4.9705627 0 9-4.0294373 9-9s-4.0294373-9-9-9-9 4.0294373-9 9 4.0294373 9 9 9z" fill="#000" fill-opacity=".6" opacity=".8"/><g fill="#333"><path d="m29 21c1.1045695 0 2 .8954305 2 2v6c0 1.1045695-.8954305 2-2 2h-10c-1.1045695 0-2-.8954305-2-2v-6c0-1.1045695.8954305-2 2-2v-1c0-2.7614237 2.2385763-5 5-5s5 2.2385763 5 5zm-6 0h2v-1c0-.5522847-.4477153-1-1-1s-1 .4477153-1 1z" stroke="#fff" stroke-width="2"/><path d="m14 13.4558703v-2.9558702c0-.2761424.2238576-.5.5-.5l3-.00000011c.2761424 0 .5.22385761.5.50000001v.0000001l-.0000008 5.881776c0 .1370055-.0562191.2680092-.1555207.3624003l-.3749137.3563738c-.2001482.1902507-.2081718.5067315-.0179211.7068797.0058213.0061241.0117969.0120997.0179211.017921l.3749137.3563739c.0993016.094391.1555207.2253948.1555207.3624002l.0000008 2.9558749c.0000001.2761424-.2238575.5000001-.4999999.5000001h-.0000001l-3-.0000001c-.2761424 0-.5-.2238576-.5-.5v-5.8817806c0-.1370055.056219-.2680093.1555207-.3624004l.3749137-.3563738c.2001482-.1902506.2081717-.5067314.017921-.7068796-.0058213-.0061242-.0117969-.0120998-.017921-.0179211l-.3749137-.3563738c-.0993017-.0943911-.1555207-.2253949-.1555207-.3624003z" opacity=".8"/></g></g></svg>