<svg width="31" height="18" viewBox="0 0 31 18" fill="none" xmlns="http://www.w3.org/2000/svg">
<rect x="0.5" y="0.5" width="30" height="17" rx="8.5" fill="#EBF3FF"/>
<rect x="0.5" y="0.5" width="30" height="17" rx="8.5" stroke="#8EB9F5"/>
<path d="M22 17C26.4183 17 30 13.4183 30 9C30 4.58172 26.4183 1 22 1C17.5817 1 14 4.58172 14 9C14 13.4183 17.5817 17 22 17Z" fill="white"/>
<path fill-rule="evenodd" clip-rule="evenodd" d="M22 15.5C18.4101 15.5 15.5 12.5899 15.5 9C15.5 5.41015 18.4101 2.5 22 2.5C25.5899 2.5 28.5 5.41015 28.5 9C28.5 12.5899 25.5899 15.5 22 15.5ZM22 13.5C24.4853 13.5 26.5 11.4853 26.5 9C26.5 6.51472 24.4853 4.5 22 4.5C19.5147 4.5 17.5 6.51472 17.5 9C17.5 11.4853 19.5147 13.5 22 13.5Z" fill="#198CFF"/>
<path fill-rule="evenodd" clip-rule="evenodd" d="M21 6H23V12H21V6Z" fill="#333333"/>
</svg>
