<svg width="31" height="18" viewBox="0 0 31 18" fill="none" xmlns="http://www.w3.org/2000/svg">
<rect width="31" height="18" rx="9" fill="#EDEDED"/>
<rect x="0.5" y="0.5" width="30" height="17" rx="8.5" stroke="black" stroke-opacity="0.13"/>
<path d="M9 17C13.4183 17 17 13.4183 17 9C17 4.58172 13.4183 1 9 1C4.58172 1 1 4.58172 1 9C1 13.4183 4.58172 17 9 17Z" fill="white"/>
<path fill-rule="evenodd" clip-rule="evenodd" d="M9 15.5C5.41015 15.5 2.5 12.5899 2.5 9C2.5 5.41015 5.41015 2.5 9 2.5C12.5899 2.5 15.5 5.41015 15.5 9C15.5 12.5899 12.5899 15.5 9 15.5ZM9 13.5C11.4853 13.5 13.5 11.4853 13.5 9C13.5 6.51472 11.4853 4.5 9 4.5C6.51472 4.5 4.5 6.51472 4.5 9C4.5 11.4853 6.51472 13.5 9 13.5Z" fill="#198CFF"/>
<path fill-rule="evenodd" clip-rule="evenodd" d="M8 6H10V12H8V6Z" fill="#333333"/>
</svg>
