<svg xmlns="http://www.w3.org/2000/svg" width="16" height="16" viewBox="0 0 16 16">
  <g fill="none" fill-rule="evenodd">
    <path fill="#D9D9D9" stroke="#000" stroke-opacity=".4" d="M8,3.5 C8.82842712,3.5 9.5,2.82842712 9.5,2 C9.5,1.17157288 8.82842712,0.5 8,0.5 C7.17157288,0.5 6.5,1.17157288 6.5,2 C6.5,2.82842712 7.17157288,3.5 8,3.5 Z M8,15.5 C8.82842712,15.5 9.5,14.8284271 9.5,14 C9.5,13.1715729 8.82842712,12.5 8,12.5 C7.17157288,12.5 6.5,13.1715729 6.5,14 C6.5,14.8284271 7.17157288,15.5 8,15.5 Z M2,9.5 C2.82842712,9.5 3.5,8.82842712 3.5,8 C3.5,7.17157288 2.82842712,6.5 2,6.5 C1.17157288,6.5 0.5,7.17157288 0.5,8 C0.5,8.82842712 1.17157288,9.5 2,9.5 Z M14,9.5 C14.8284271,9.5 15.5,8.82842712 15.5,8 C15.5,7.17157288 14.8284271,6.5 14,6.5 C13.1715729,6.5 12.5,7.17157288 12.5,8 C12.5,8.82842712 13.1715729,9.5 14,9.5 Z M8,10.5 C9.38071187,10.5 10.5,9.38071187 10.5,8 C10.5,6.61928813 9.38071187,5.5 8,5.5 C6.61928813,5.5 5.5,6.61928813 5.5,8 C5.5,9.38071187 6.61928813,10.5 8,10.5 Z"/>
    <path fill="#B3B3B3" d="M3.5,5.25 C2.53350169,5.25 1.75,4.46649831 1.75,3.5 C1.75,2.53350169 2.53350169,1.75 3.5,1.75 C4.46649831,1.75 5.25,2.53350169 5.25,3.5 C5.25,4.46649831 4.46649831,5.25 3.5,5.25 Z M12.5,5.25 C11.5335017,5.25 10.75,4.46649831 10.75,3.5 C10.75,2.53350169 11.5335017,1.75 12.5,1.75 C13.4664983,1.75 14.25,2.53350169 14.25,3.5 C14.25,4.46649831 13.4664983,5.25 12.5,5.25 Z M12.5,14.25 C11.5335017,14.25 10.75,13.4664983 10.75,12.5 C10.75,11.5335017 11.5335017,10.75 12.5,10.75 C13.4664983,10.75 14.25,11.5335017 14.25,12.5 C14.25,13.4664983 13.4664983,14.25 12.5,14.25 Z M3.5,14.25 C2.53350169,14.25 1.75,13.4664983 1.75,12.5 C1.75,11.5335017 2.53350169,10.75 3.5,10.75 C4.46649831,10.75 5.25,11.5335017 5.25,12.5 C5.25,13.4664983 4.46649831,14.25 3.5,14.25 Z"/>
  </g>
</svg>
