<svg xmlns="http://www.w3.org/2000/svg" xmlns:xlink="http://www.w3.org/1999/xlink" width="18" height="18" viewBox="0 0 18 18">
  <defs>
    <path id="all-mono-black-a" d="M9,5 C7.61928813,5 6.5,3.88071187 6.5,2.5 C6.5,1.11928813 7.61928813,0 9,0 C10.3807119,0 11.5,1.11928813 11.5,2.5 C11.5,3.88071187 10.3807119,5 9,5 Z M9,18 C7.61928813,18 6.5,16.8807119 6.5,15.5 C6.5,14.1192881 7.61928813,13 9,13 C10.3807119,13 11.5,14.1192881 11.5,15.5 C11.5,16.8807119 10.3807119,18 9,18 Z M2.5,11.5 C1.11928813,11.5 0,10.3807119 0,9 C0,7.61928813 1.11928813,6.5 2.5,6.5 C3.88071187,6.5 5,7.61928813 5,9 C5,10.3807119 3.88071187,11.5 2.5,11.5 Z M15.5,11.5 C14.1192881,11.5 13,10.3807119 13,9 C13,7.61928813 14.1192881,6.5 15.5,6.5 C16.8807119,6.5 18,7.61928813 18,9 C18,10.3807119 16.8807119,11.5 15.5,11.5 Z M9,12 C7.34314575,12 6,10.6568542 6,9 C6,7.34314575 7.34314575,6 9,6 C10.6568542,6 12,7.34314575 12,9 C12,10.6568542 10.6568542,12 9,12 Z"/>
    <path id="all-mono-black-b" d="M3.70588235,5.82352941 C2.53633818,5.82352941 1.58823529,4.87542653 1.58823529,3.70588235 C1.58823529,2.53633818 2.53633818,1.58823529 3.70588235,1.58823529 C4.87542653,1.58823529 5.82352941,2.53633818 5.82352941,3.70588235 C5.82352941,4.87542653 4.87542653,5.82352941 3.70588235,5.82352941 Z M14.2941176,5.82352941 C13.1245735,5.82352941 12.1764706,4.87542653 12.1764706,3.70588235 C12.1764706,2.53633818 13.1245735,1.58823529 14.2941176,1.58823529 C15.4636618,1.58823529 16.4117647,2.53633818 16.4117647,3.70588235 C16.4117647,4.87542653 15.4636618,5.82352941 14.2941176,5.82352941 Z M14.2941176,16.4117647 C13.1245735,16.4117647 12.1764706,15.4636618 12.1764706,14.2941176 C12.1764706,13.1245735 13.1245735,12.1764706 14.2941176,12.1764706 C15.4636618,12.1764706 16.4117647,13.1245735 16.4117647,14.2941176 C16.4117647,15.4636618 15.4636618,16.4117647 14.2941176,16.4117647 Z M3.70588235,16.4117647 C2.53633818,16.4117647 1.58823529,15.4636618 1.58823529,14.2941176 C1.58823529,13.1245735 2.53633818,12.1764706 3.70588235,12.1764706 C4.87542653,12.1764706 5.82352941,13.1245735 5.82352941,14.2941176 C5.82352941,15.4636618 4.87542653,16.4117647 3.70588235,16.4117647 Z"/>
  </defs>
  <g fill="none" fill-rule="evenodd">
    <use fill="#000" fill-opacity=".2" xlink:href="#all-mono-black-a"/>
    <path stroke="#000" d="M9,4.5 C10.1045695,4.5 11,3.6045695 11,2.5 C11,1.3954305 10.1045695,0.5 9,0.5 C7.8954305,0.5 7,1.3954305 7,2.5 C7,3.6045695 7.8954305,4.5 9,4.5 Z M9,17.5 C10.1045695,17.5 11,16.6045695 11,15.5 C11,14.3954305 10.1045695,13.5 9,13.5 C7.8954305,13.5 7,14.3954305 7,15.5 C7,16.6045695 7.8954305,17.5 9,17.5 Z M2.5,11 C3.6045695,11 4.5,10.1045695 4.5,9 C4.5,7.8954305 3.6045695,7 2.5,7 C1.3954305,7 0.5,7.8954305 0.5,9 C0.5,10.1045695 1.3954305,11 2.5,11 Z M15.5,11 C16.6045695,11 17.5,10.1045695 17.5,9 C17.5,7.8954305 16.6045695,7 15.5,7 C14.3954305,7 13.5,7.8954305 13.5,9 C13.5,10.1045695 14.3954305,11 15.5,11 Z M9,11.5 C10.3807119,11.5 11.5,10.3807119 11.5,9 C11.5,7.61928813 10.3807119,6.5 9,6.5 C7.61928813,6.5 6.5,7.61928813 6.5,9 C6.5,10.3807119 7.61928813,11.5 9,11.5 Z"/>
    <g>
      <use fill="#000" fill-opacity=".1" xlink:href="#all-mono-black-b"/>
      <path stroke="#000" d="M3.70588235,5.32352941 C4.59928415,5.32352941 5.32352941,4.59928415 5.32352941,3.70588235 C5.32352941,2.81248055 4.59928415,2.08823529 3.70588235,2.08823529 C2.81248055,2.08823529 2.08823529,2.81248055 2.08823529,3.70588235 C2.08823529,4.59928415 2.81248055,5.32352941 3.70588235,5.32352941 Z M14.2941176,5.32352941 C15.1875194,5.32352941 15.9117647,4.59928415 15.9117647,3.70588235 C15.9117647,2.81248055 15.1875194,2.08823529 14.2941176,2.08823529 C13.4007158,2.08823529 12.6764706,2.81248055 12.6764706,3.70588235 C12.6764706,4.59928415 13.4007158,5.32352941 14.2941176,5.32352941 Z M14.2941176,15.9117647 C15.1875194,15.9117647 15.9117647,15.1875194 15.9117647,14.2941176 C15.9117647,13.4007158 15.1875194,12.6764706 14.2941176,12.6764706 C13.4007158,12.6764706 12.6764706,13.4007158 12.6764706,14.2941176 C12.6764706,15.1875194 13.4007158,15.9117647 14.2941176,15.9117647 Z M3.70588235,15.9117647 C4.59928415,15.9117647 5.32352941,15.1875194 5.32352941,14.2941176 C5.32352941,13.4007158 4.59928415,12.6764706 3.70588235,12.6764706 C2.81248055,12.6764706 2.08823529,13.4007158 2.08823529,14.2941176 C2.08823529,15.1875194 2.81248055,15.9117647 3.70588235,15.9117647 Z"/>
    </g>
  </g>
</svg>
