<svg xmlns="http://www.w3.org/2000/svg" width="18" height="18" viewBox="0 0 18 18">
  <g fill="#FFF" fill-rule="evenodd">
    <path d="M9,5 C7.61928813,5 6.5,3.88071187 6.5,2.5 C6.5,1.11928813 7.61928813,0 9,0 C10.3807119,0 11.5,1.11928813 11.5,2.5 C11.5,3.88071187 10.3807119,5 9,5 Z M9,18 C7.61928813,18 6.5,16.8807119 6.5,15.5 C6.5,14.1192881 7.61928813,13 9,13 C10.3807119,13 11.5,14.1192881 11.5,15.5 C11.5,16.8807119 10.3807119,18 9,18 Z M2.5,11.5 C1.11928813,11.5 0,10.3807119 0,9 C0,7.61928813 1.11928813,6.5 2.5,6.5 C3.88071187,6.5 5,7.61928813 5,9 C5,10.3807119 3.88071187,11.5 2.5,11.5 Z M15.5,11.5 C14.1192881,11.5 13,10.3807119 13,9 C13,7.61928813 14.1192881,6.5 15.5,6.5 C16.8807119,6.5 18,7.61928813 18,9 C18,10.3807119 16.8807119,11.5 15.5,11.5 Z M9,12 C7.34314575,12 6,10.6568542 6,9 C6,7.34314575 7.34314575,6 9,6 C10.6568542,6 12,7.34314575 12,9 C12,10.6568542 10.6568542,12 9,12 Z"/>
    <path d="M3.70588235,5.82352941 C4.87542653,5.82352941 5.82352941,4.87542653 5.82352941,3.70588235 C5.82352941,2.53633818 4.87542653,1.58823529 3.70588235,1.58823529 C2.53633818,1.58823529 1.58823529,2.53633818 1.58823529,3.70588235 C1.58823529,4.87542653 2.53633818,5.82352941 3.70588235,5.82352941 Z M3.70588235,4.80588235 C3.09836913,4.80588235 2.60588235,4.31339558 2.60588235,3.70588235 C2.60588235,3.09836913 3.09836913,2.60588235 3.70588235,2.60588235 C4.31339558,2.60588235 4.80588235,3.09836913 4.80588235,3.70588235 C4.80588235,4.31339558 4.31339558,4.80588235 3.70588235,4.80588235 Z M14.2941176,5.82352941 C13.1245735,5.82352941 12.1764706,4.87542653 12.1764706,3.70588235 C12.1764706,2.53633818 13.1245735,1.58823529 14.2941176,1.58823529 C15.4636618,1.58823529 16.4117647,2.53633818 16.4117647,3.70588235 C16.4117647,4.87542653 15.4636618,5.82352941 14.2941176,5.82352941 Z M14.2941176,4.80588235 C14.9016309,4.80588235 15.3941176,4.31339558 15.3941176,3.70588235 C15.3941176,3.09836913 14.9016309,2.60588235 14.2941176,2.60588235 C13.6866044,2.60588235 13.1941176,3.09836913 13.1941176,3.70588235 C13.1941176,4.31339558 13.6866044,4.80588235 14.2941176,4.80588235 Z M14.2941176,16.4117647 C13.1245735,16.4117647 12.1764706,15.4636618 12.1764706,14.2941176 C12.1764706,13.1245735 13.1245735,12.1764706 14.2941176,12.1764706 C15.4636618,12.1764706 16.4117647,13.1245735 16.4117647,14.2941176 C16.4117647,15.4636618 15.4636618,16.4117647 14.2941176,16.4117647 Z M14.2941176,15.3941176 C14.9016309,15.3941176 15.3941176,14.9016309 15.3941176,14.2941176 C15.3941176,13.6866044 14.9016309,13.1941176 14.2941176,13.1941176 C13.6866044,13.1941176 13.1941176,13.6866044 13.1941176,14.2941176 C13.1941176,14.9016309 13.6866044,15.3941176 14.2941176,15.3941176 Z M3.70588235,16.4117647 C2.53633818,16.4117647 1.58823529,15.4636618 1.58823529,14.2941176 C1.58823529,13.1245735 2.53633818,12.1764706 3.70588235,12.1764706 C4.87542653,12.1764706 5.82352941,13.1245735 5.82352941,14.2941176 C5.82352941,15.4636618 4.87542653,16.4117647 3.70588235,16.4117647 Z M3.70588235,15.3941176 C4.31339558,15.3941176 4.80588235,14.9016309 4.80588235,14.2941176 C4.80588235,13.6866044 4.31339558,13.1941176 3.70588235,13.1941176 C3.09836913,13.1941176 2.60588235,13.6866044 2.60588235,14.2941176 C2.60588235,14.9016309 3.09836913,15.3941176 3.70588235,15.3941176 Z" opacity=".75"/>
  </g>
</svg>
