<svg xmlns="http://www.w3.org/2000/svg" width="16" height="16" viewBox="0 0 16 16">
  <path fill="#FFE6B3" fill-rule="evenodd" stroke="#B38F6B" d="M15.3329831,6.55714345 C15.4047437,6.47435586 15.4555152,6.37550648 15.4810049,6.26895305 C15.5686849,5.90242867 15.3426368,5.53422328 14.9761124,5.44654329 L10.82025,4.45237764 L8.58053356,0.824104388 C8.52478455,0.733792659 8.448738,0.657729854 8.3584382,0.60196153 C8.03779338,0.403934257 7.61732657,0.50333542 7.41929929,0.82398024 L5.17843459,4.45237774 L1.02359747,5.44655324 C0.917101196,5.47203582 0.818301568,5.52277352 0.735543606,5.59448083 C0.450722473,5.84126986 0.419891358,6.27222504 0.666680385,6.55704618 L3.43728118,9.75461809 L3.09963993,13.9825801 C3.09107286,14.0898574 3.10800077,14.1976399 3.14904131,14.297126 C3.29275951,14.6455122 3.69168899,14.8114285 4.04007524,14.6677103 L7.99934247,13.0344117 L11.9597364,14.6677335 C12.0592596,14.7087782 12.167082,14.7256933 12.2743929,14.7170964 C12.6500552,14.6870015 12.9301929,14.3580702 12.900098,13.9824078 L12.5614025,9.75461817 L15.3329831,6.55714345 Z"/>
</svg>
