<svg xmlns="http://www.w3.org/2000/svg" xmlns:xlink="http://www.w3.org/1999/xlink" width="18" height="18" viewBox="0 0 18 18">
  <defs>
    <path id="favorites-mono-black-a" d="M17.6746525,7.7452179 L14.7111171,11.164144 L15.0733138,15.6852899 C15.1319787,16.4175781 14.5858991,17.0587722 13.8536109,17.1174371 C13.644427,17.1341952 13.4342462,17.1012222 13.2402431,17.0212127 L8.99928927,15.2721841 L4.7595946,17.0211661 C4.08047639,17.3013196 3.30283298,16.9778949 3.02267943,16.2987767 C2.94267806,16.1048459 2.90968005,15.8947428 2.92638005,15.6856245 L3.28746142,11.164144 L0.324898991,7.74502768 C-0.156173155,7.18981858 -0.0960732765,6.34974664 0.459135826,5.86867449 C0.620458032,5.72889361 0.813050668,5.62998931 1.02064657,5.58031546 L5.46911137,4.5158803 L7.86812578,0.631407535 C8.2541454,0.00636640518 9.07377208,-0.187398817 9.69881321,0.198620798 C9.87483692,0.307331416 10.0230764,0.455602582 10.1317494,0.63164954 L12.5294672,4.5158803 L16.9789953,5.58029667 C17.6934706,5.7512135 18.1341118,6.46896566 17.963195,7.18344099 C17.9135073,7.39114832 17.8145371,7.58383792 17.6746525,7.7452179 Z"/>
  </defs>
  <g fill="none" fill-rule="evenodd">
    <use fill="#000" fill-opacity=".2" xlink:href="#favorites-mono-black-a"/>
    <path stroke="#000" d="M17.2968334,7.41772322 C17.3841367,7.31700451 17.4459049,7.19674519 17.4769154,7.06711316 C17.5835862,6.62120263 17.308578,6.173247 16.8626675,6.06657626 L12.212413,4.95414212 L9.70628349,0.894287671 C9.6384597,0.784415168 9.54594211,0.69187779 9.43608411,0.624030507 C9.04599027,0.383112167 8.53445383,0.504042798 8.29353549,0.894136633 L5.78611363,4.95414222 L1.13700264,6.06658829 C1.00744016,6.09759019 0.887241349,6.15931726 0.786558698,6.24655578 C0.440047664,6.54679726 0.402538786,7.07109377 0.702780272,7.41760481 L3.80255468,10.9950785 L3.42479326,15.7254273 C3.41437064,15.8559399 3.434965,15.9870672 3.48489458,16.1081011 C3.65974095,16.531945 4.14507525,16.7337973 4.56891908,16.5589509 L8.9992635,14.7313211 L13.4308746,16.5589793 C13.5519536,16.608914 13.6831294,16.6294927 13.813683,16.6190339 C14.2707107,16.5824206 14.6115239,16.1822455 14.5749106,15.7252178 L14.1959711,10.9950786 L17.2968334,7.41772322 Z"/>
  </g>
</svg>
