<svg xmlns="http://www.w3.org/2000/svg" width="18" height="18" viewBox="0 0 18 18">
  <path fill="#FFF" fill-rule="evenodd" d="M17.6746525,7.7452179 L14.7111171,11.164144 L15.0733138,15.6852899 C15.1319787,16.4175781 14.5858991,17.0587722 13.8536109,17.1174371 C13.644427,17.1341952 13.4342462,17.1012222 13.2402431,17.0212127 L8.99928927,15.2721841 L4.7595946,17.0211661 C4.08047639,17.3013196 3.30283298,16.9778949 3.02267943,16.2987767 C2.94267806,16.1048459 2.90968005,15.8947428 2.92638005,15.6856245 L3.28746142,11.164144 L0.324898991,7.74502768 C-0.156173155,7.18981858 -0.0960732765,6.34974664 0.459135826,5.86867449 C0.620458032,5.72889361 0.813050668,5.62998931 1.02064657,5.58031546 L5.46911137,4.5158803 L7.86812578,0.631407535 C8.2541454,0.00636640518 9.07377208,-0.187398817 9.69881321,0.198620798 C9.87483692,0.307331416 10.0230764,0.455602582 10.1317494,0.63164954 L12.5294672,4.5158803 L16.9789953,5.58029667 C17.6934706,5.7512135 18.1341118,6.46896566 17.963195,7.18344099 C17.9135073,7.39114832 17.8145371,7.58383792 17.6746525,7.7452179 Z"/>
</svg>
