<?xml version="1.0" encoding="UTF-8"?>
<svg width="18px" height="18px" viewBox="0 0 18 18" version="1.1" xmlns="http://www.w3.org/2000/svg" xmlns:xlink="http://www.w3.org/1999/xlink">
    <!-- Generator: Sketch 51.1 (57501) - http://www.bohemiancoding.com/sketch -->
    <title>inactive_2fa-mono-white</title>
    <desc>Created with Sketch.</desc>
    <defs></defs>
    <g id="symbols" stroke="none" stroke-width="1" fill="none" fill-rule="evenodd">
        <g id="category-icons-/-simple-/-dark-bg-/-Inactive-2FA" transform="translate(0.000000, -1.000000)" fill="#FFFFFF">
            <g id="Inactive-2FA-" transform="translate(0.000000, 1.000000)">
                <rect id="Padlock" x="5" y="10" width="8" height="6" rx="1"></rect>
                <path d="M8,10.5 L6,10.5 L6,9 C6,7.24185059 7.27543332,6 9,6 C10.7333679,6 12,7.22006552 12,9 L12,10.5 L10,10.5 L10,9 C10,8.34174388 9.64521269,8 9,8 C8.36823561,8 8,8.3585398 8,9 L8,10.5 Z" id="Loop" fill-rule="nonzero"></path>
                <path d="M4,9 C3.20184326,9 3.02819265,8.32763801 3.08236434,8.00354776 C3.55697982,5.16408908 6.02576487,3 9,3 C11.9732685,3 14.4414154,5.1626826 14.9171723,8.00077942 C14.9716466,8.32574225 14.8004761,9 14,9 C13.1995239,9 12.9575459,8.32964471 12.8776475,8.01435046 C12.4386157,6.28184652 10.8690035,5 9,5 C7.13137766,5 5.56202451,6.28132373 5.12262121,8.01329052 C5.04254931,8.32890461 4.79815674,9 4,9 Z" id="Radar-2" fill-rule="nonzero"></path>
                <path d="M1,9 C0.252390745,9.00330272 0.0178931057,8.3417244 0.0527654497,8.01976921 C0.541204844,3.51030467 4.36066463,0 9,0 C13.6338342,0 17.449736,3.50198473 17.945483,8.0037478 C17.9815076,8.33087913 17.75,9 17,9 C16.25,9 15.9763548,8.33391911 15.9306384,8.01073676 C15.4500351,4.61320975 12.5301915,2 9,2 C5.46976564,2 2.54989395,4.61327323 2.06934407,8.01086056 C2.0236392,8.33400345 1.74760926,8.99669728 1,9 Z" id="Radar-1" fill-rule="nonzero"></path>
            </g>
        </g>
    </g>
</svg>