<svg xmlns="http://www.w3.org/2000/svg" width="16" height="16" viewBox="0 0 16 16">
  <g fill="none" fill-rule="evenodd">
    <path fill="#FFF" fill-rule="nonzero" d="M9.90068987,12.1785412 C9.63721533,12.0443059 9.363187,11.8903964 9.08237562,11.7171823 C9.55138461,11.3426637 10.0177422,10.9268444 10.4722933,10.4722933 C13.5649557,7.37963088 14.8646694,3.74043276 13.562359,2.43812244 C12.2600487,1.13581211 8.62085059,2.43552572 5.52818816,5.52818816 C2.43552572,8.62085059 1.13581211,12.2600487 2.43812244,13.562359 C3.08552042,14.209757 4.31041784,14.2141342 5.75858988,13.6748845 C6.03387216,13.8888588 6.31101017,14.0912959 6.58900745,14.2816394 C4.61474533,15.1455907 2.83374563,15.1940085 1.82010929,14.1803722 C0.0505465054,12.4108094 1.51777199,8.30257804 4.91017501,4.91017501 C8.30257804,1.51777199 12.4108094,0.0505465054 14.1803722,1.82010929 C15.949935,3.58967208 14.4827095,7.69790343 11.0903065,11.0903065 C10.7016328,11.4789801 10.3035627,11.8423826 9.90068987,12.1785412 Z"/>
    <path fill="#FFF" fill-rule="nonzero" d="M6.66240917,1.74116079 C6.38405256,1.92980789 6.10652058,2.13051811 5.83081251,2.34273732 C4.32289457,1.74720215 3.0406664,1.73071741 2.37288165,2.40311986 C1.70666207,3.07394631 1.72139543,4.36056818 2.30876451,5.87428961 C2.09713336,6.15089439 1.89709878,6.42928301 1.70921923,6.70844832 C0.79215784,4.67060485 0.719903541,2.82295487 1.7548685,1.78083319 C2.79217949,0.736349261 4.63311777,0.811801004 6.66240917,1.74116079 Z M9.92677747,3.87377925 C10.2984835,4.19048679 10.665789,4.53050548 11.0250657,4.89226653 C11.4099618,5.27982424 11.7700756,5.67666036 12.1034914,6.07828289 C11.9683166,6.34275511 11.8136593,6.61755073 11.6398912,6.89890605 C11.2685096,6.43177051 10.8567343,5.96734448 10.4070525,5.5145532 C9.98178117,5.08634112 9.54617541,4.69226625 9.10773262,4.33444685 C9.38864298,4.16166558 9.66291073,4.00798597 9.92677747,3.87377925 Z M14.2010322,9.38950968 C15.079742,11.3914323 15.1347441,13.1999033 14.1151314,14.2265665 C12.3455686,16.0083658 8.23733725,14.5309945 4.84493422,11.1151332 C4.48506965,10.7527802 4.14686885,10.3823163 3.83189749,10.007413 C3.964129,9.74186161 4.11643763,9.4652239 4.28843582,9.18142349 C4.64446465,9.62395099 5.03667471,10.0636262 5.46294737,10.4928465 C8.5556098,13.6068945 12.1948079,14.9155956 13.4971182,13.6042799 C14.1505681,12.9463115 14.1489191,11.6959278 13.5943785,10.2198996 C13.8082311,9.94466927 14.0106333,9.66754023 14.2010322,9.38950968 Z"/>
    <path fill="#000" fill-opacity=".6" fill-rule="nonzero" d="M10.1744205,12.7806501 C9.87296313,12.6270632 9.5594305,12.4509659 9.23813696,12.252781 C9.77475894,11.8242713 10.3083473,11.348507 10.8284271,10.8284271 C14.3669321,7.28992216 15.8540142,3.12609217 14.363961,1.63603897 C12.8739078,0.14598577 8.71007784,1.63306791 5.17157288,5.17157288 C1.63306791,8.71007784 0.14598577,12.8739078 1.63603897,14.363961 C2.37676675,15.1046888 3.77824709,15.109697 5.43518964,14.4927083 C5.75015699,14.7375294 6.0672476,14.9691502 6.38532135,15.1869338 C4.12644685,16.1754335 2.08869575,16.2308314 0.928932188,15.0710678 C-1.09573324,13.0464024 0.583009517,8.34592267 4.46446609,4.46446609 C8.34592267,0.583009517 13.0464024,-1.09573324 15.0710678,0.928932188 C17.0957332,2.95359761 15.4169905,7.65407733 11.5355339,11.5355339 C11.0908285,11.9802393 10.635372,12.3960304 10.1744205,12.7806501 Z"/>
    <path fill="#000" fill-opacity=".4" fill-rule="nonzero" d="M6.47870998,0.845016961 C6.16022509,1.06085969 5.84268371,1.29050458 5.52722918,1.53331761 C3.80192769,0.851929251 2.33485172,0.833068049 1.57079818,1.60240497 C0.808535455,2.3699387 0.825392806,3.84204178 1.49743783,5.5739834 C1.25529764,5.89046391 1.02642579,6.20898542 0.811461263,6.5283956 C-0.237804976,4.19677376 -0.320475555,2.08276399 0.863691398,0.890408591 C2.05054258,-0.3046496 4.1568731,-0.218320627 6.47870998,0.845016961 Z M10.2136742,3.28507667 C10.6389658,3.64744121 11.0592226,4.03647747 11.4702931,4.4503905 C11.9106765,4.89381907 12.3227048,5.34786364 12.7041862,5.80738464 C12.5495245,6.10998354 12.3725715,6.42439408 12.1737528,6.74630998 C11.7488322,6.21183153 11.2776948,5.68045319 10.7631863,5.16238688 C10.2766073,4.67244316 9.77820398,4.2215579 9.27655466,3.81215476 C9.59796146,3.6144651 9.91176803,3.43863083 10.2136742,3.28507667 Z M15.1041114,9.59596249 C16.1094973,11.8864851 16.1724285,13.9556678 15.005827,15.1303362 C12.9811616,17.1690021 8.28068188,15.4786509 4.3992253,11.5703543 C3.98748215,11.155764 3.60052585,10.7318936 3.24014778,10.3029437 C3.39144197,9.99910998 3.56570762,9.68259179 3.76250132,9.35787831 C4.16985576,9.8642012 4.61860737,10.3672606 5.10633208,10.8583579 C8.64483705,14.4213315 12.808667,15.9186967 14.2987202,14.4183398 C15.0463723,13.6655178 15.0444856,12.2348771 14.4100017,10.5460626 C14.6546835,10.2311547 14.8862643,9.91407431 15.1041114,9.59596249 Z"/>
    <circle cx="8" cy="8" r="2" fill="#BBB2FF" stroke="#000" stroke-opacity=".4"/>
  </g>
</svg>
