<svg xmlns="http://www.w3.org/2000/svg" xmlns:xlink="http://www.w3.org/1999/xlink" width="32" height="32" viewBox="0 0 32 32">
  <defs>
    <path id="suggested_password_icon-a" d="M10.3270224,13.6729776 L0,24 L0,30 L2,32 L8,32 L8,30 L10,28 L12,28 L12,26 L14,24 L16,24 L18.3270224,21.6729776 C19.1827352,21.8865961 20.0781241,22 21,22 C27.0751322,22 32,17.0751322 32,11 C32,4.92486775 27.0751322,0 21,0 C14.9248678,0 10,4.92486775 10,11 C10,11.9218759 10.1134039,12.8172648 10.3270224,13.6729776 L10.3270224,13.6729776 Z"/>
    <mask id="suggested_password_icon-b" width="32" height="32" x="0" y="0" fill="#fff">
      <use xlink:href="#suggested_password_icon-a"/>
    </mask>
    <circle id="suggested_password_icon-c" cx="21" cy="11" r="8"/>
    <path id="suggested_password_icon-d" d="M16,24 L13,21 L2,32 L8,32 L8,30 L10,28 L12,28 L12,26 L14,24 L16,24 Z"/>
    <polygon id="suggested_password_icon-e" points="0 28 12 16 13 17 0 30"/>
  </defs>
  <g fill="none" fill-rule="evenodd">
    <use fill="#FFF" fill-opacity=".6" stroke="gray" stroke-dasharray="4 2" stroke-opacity=".6" stroke-width="2" mask="url(#suggested_password_icon-b)" xlink:href="#suggested_password_icon-a"/>
    <use fill="gray" fill-opacity=".4" xlink:href="#suggested_password_icon-c"/>
    <circle cx="21" cy="11" r="7.75" stroke="gray" stroke-opacity=".4" stroke-width=".5"/>
    <use fill="gray" fill-opacity=".4" xlink:href="#suggested_password_icon-d"/>
    <path stroke="gray" stroke-opacity=".4" stroke-width=".5" d="M15.3964466,23.75 L13,21.3535534 L2.60355339,31.75 L7.75,31.75 L7.75,30 L7.8232233,29.8232233 L9.8232233,27.8232233 L10,27.75 L11.75,27.75 L11.75,26 L11.8232233,25.8232233 L13.8232233,23.8232233 L14,23.75 L15.3964466,23.75 Z"/>
    <g>
      <use fill="gray" fill-opacity=".4" xlink:href="#suggested_password_icon-e"/>
      <path stroke="gray" stroke-opacity=".4" stroke-width=".5" d="M0.25,28.1035534 L0.25,29.3964466 L12.6464466,17 L12,16.3535534 L0.25,28.1035534 Z"/>
    </g>
  </g>
</svg>
